<?xml version="1.0" encoding="utf-8"?>
<!-- Generator: Adobe Illustrator 26.1.0, SVG Export Plug-In . SVG Version: 6.00 Build 0)  -->
<svg version="1.1" id="Слой_1" xmlns="http://www.w3.org/2000/svg" xmlns:xlink="http://www.w3.org/1999/xlink" x="0px" y="0px"
	 viewBox="0 0 3000 3000" style="enable-background:new 0 0 3000 3000;" xml:space="preserve">
<style type="text/css">
	.st0{display:none;}
	.st1{display:inline;fill:#3A3C3B;}
	.st2{display:inline;fill:#F95D20;}
	.st3{display:inline;fill:#CF1314;}
	.st4{display:inline;fill:#1D8ACB;}
	.st5{display:inline;fill:#A9DD33;}
	.st6{display:inline;fill:#F5C91A;}
	.st7{display:inline;fill:#F0D42A;}
	.st8{display:inline;}
	.st9{fill:#FFFFFF;}
	.st10{fill:#1D1D33;}
	.st11{opacity:0.36;}
	.st12{fill:#3A3C3B;}
	.st13{fill:#6CD5D1;}
	.st14{fill:#FF354D;}
	.st15{fill:#1D8ACB;}
	.st16{fill:#A9DD33;}
	.st17{fill:#F95D20;}
	.st18{fill:#F0D42A;}
	.st19{fill:#09C998;}
	.st20{fill:#F5C91A;}
	.st21{fill:#CF1314;}
</style>
<g class="st0">
	<polygon class="st1" points="1545.97,2507.97 1643.35,2507.97 1594.66,2556.66 	"/>
	<path class="st1" d="M2545.01,1605.47l-698.22,698.21l-166.73,166.73c-2.72-3.89-6.49-6.59-10.75-7.37
		c-0.84-0.16-1.71-0.24-2.58-0.24h-166.79l-45.17-45.17h60.21c1.89,0,3.7-0.37,5.41-1.07c2.74-1.1,5.19-3.03,7.18-5.55
		c3.21-4.08,5.21-9.73,5.21-15.97c0-11.36-6.61-20.76-15.22-22.34c-0.84-0.16-1.71-0.24-2.58-0.24H1409.6l-71.66-71.67l-699.4-699.4
		l951.21-951.19L2545.01,1605.47z"/>
	<path class="st2" d="M1943.23,1499.3l-258.17-258.17c-17.09-17.09-17.09-44.8,0-61.9l258.17-258.17c17.09-17.09,44.8-17.09,61.9,0
		l258.17,258.17c17.09,17.09,17.09,44.8,0,61.89l-258.17,258.17C1988.03,1516.39,1960.32,1516.39,1943.23,1499.3z"/>
	<path class="st3" d="M2330.88,1886.95l-258.17-258.17c-17.09-17.09-17.09-44.8,0-61.89l258.17-258.17
		c17.09-17.09,44.8-17.09,61.9,0l258.17,258.17c17.09,17.09,17.09,44.8,0,61.89l-258.17,258.17
		C2375.68,1904.05,2347.97,1904.05,2330.88,1886.95z"/>
	<path class="st4" d="M1948.49,2269.34l-258.17-258.17c-17.09-17.09-17.09-44.8,0-61.89l258.17-258.17
		c17.09-17.09,44.8-17.09,61.9,0l258.17,258.17c17.09,17.09,17.09,44.8,0,61.89l-258.17,258.17
		C1993.29,2286.43,1965.58,2286.43,1948.49,2269.34z"/>
	<path class="st5" d="M1879.99,2398.82l-199.68,199.68l-58.49,58.49c-17.09,17.09-44.81,17.09-61.9,0l-58.68-58.68h55.59
		c1.89,0,3.7-0.37,5.41-1.07c2.74-1.1,5.19-3.03,7.18-5.55c3.21-4.08,5.21-9.73,5.21-15.97c0-11.36-6.61-20.76-15.22-22.34
		c-0.84-0.16-1.71-0.24-2.58-0.24h-100.76l-45.17-45.17h255.78c1.89,0,3.7-0.37,5.41-1.07c2.74-1.1,5.19-3.03,7.18-5.55
		c3.21-4.08,5.21-9.73,5.21-15.97c0-5.74-1.69-10.99-4.47-14.97c-2.72-3.89-6.49-6.59-10.75-7.37c-0.84-0.16-1.71-0.24-2.58-0.24
		h-297.16c-1.16,0-2.29,0.14-3.38,0.41l-0.41-0.41l-45.17-45.17h194.37c1.89,0,3.7-0.37,5.41-1.07c2.74-1.1,5.19-3.03,7.18-5.55
		c3.21-4.08,5.21-9.73,5.21-15.97c0-11.36-6.61-20.76-15.22-22.34c-0.84-0.16-1.71-0.24-2.58-0.24h-225.76
		c-1.33-12.68,2.87-25.82,12.58-35.53l36.14-36.14l222.03-222.04c17.1-17.09,44.81-17.09,61.9,0l224.92,224.93l33.25,33.25
		C1897.08,2354.02,1897.08,2381.73,1879.99,2398.82z"/>
	<path class="st2" d="M1498.52,2016.44l-258.17,258.17c-17.09,17.1-44.8,17.1-61.89,0l-41-41l-45.17-45.17h7.01
		c2.59,0,5.08-0.37,7.42-1.07c3.74-1.1,7.1-3.03,9.83-5.55c4.4-4.08,7.14-9.73,7.14-15.97c0-11.36-9.06-20.76-20.85-22.34
		c-1.16-0.16-2.35-0.24-3.54-0.24h-52.18l-45.17-45.17h33.81c2.59,0,5.07-0.37,7.41-1.07c3.75-1.1,7.1-3.03,9.83-5.55
		c4.4-4.08,7.14-9.73,7.14-15.97c0-11.36-9.05-20.76-20.84-22.34c-1.16-0.16-2.35-0.24-3.54-0.24h-78.98l-36.49-36.49
		c-2.67-2.66-4.92-5.58-6.75-8.68c-9.93-16.79-7.68-38.78,6.75-53.21l258.17-258.18c17.09-17.09,44.8-17.09,61.89,0l258.17,258.18
		C1515.61,1971.64,1515.61,1999.35,1498.52,2016.44z"/>
	<path class="st3" d="M1110.87,1628.78L852.7,1886.95c-17.1,17.1-44.81,17.1-61.9,0L593.35,1689.5l-3.29-3.29h79.16
		c1.46-0.94,2.79-2.06,3.99-3.33c3.84-4.08,6.23-9.73,6.23-15.97c0-11.36-7.9-20.76-18.19-22.34c-1.01-0.16-2.05-0.24-3.09-0.24
		h-37.11c-2.04,0.7-4.21,1.07-6.47,1.07h-65.33l-16.62-16.62c-7.94-7.93-12.19-18.16-12.75-28.55h99.31c7.46,0,14.21-2.53,19.1-6.62
		c4.88-4.08,7.91-9.73,7.91-15.97c0-11.36-10.03-20.76-23.09-22.34c-1.28-0.16-2.6-0.24-3.92-0.24h-74.73l45.17-45.17h0.69
		c1.33,0,2.65,0.08,3.93,0.24c1.46,0.18,2.87,0.45,4.24,0.82h86.47c5.08,0,9.68-2.53,13.01-6.62c3.33-4.08,5.39-9.73,5.39-15.97
		c0-11.36-6.83-20.76-15.73-22.34c-0.87-0.16-1.77-0.24-2.67-0.24h-51.22l157.06-157.06c17.09-17.1,44.81-17.1,61.9,0l258.17,258.17
		C1127.96,1583.98,1127.96,1611.69,1110.87,1628.78z"/>
	<path class="st6" d="M1498.52,1241.13l-258.17,258.17c-17.09,17.09-44.8,17.09-61.89,0l-258.17-258.17
		c-13.07-13.06-16.15-32.32-9.25-48.31c2.14-4.94,5.22-9.56,9.25-13.59l31.34-31.34l0.25-0.25h105.51
		c4.89-0.73,9.27-3.03,12.61-6.36c4.09-4.09,6.62-9.74,6.62-15.98c0-11.36-8.39-20.76-19.31-22.34h-60.75l45.17-45.17h50.21
		c1.11,0,2.21,0.08,3.28,0.24h45.57c6.23,0,11.88-2.53,15.97-6.61c4.08-4.09,6.61-9.74,6.61-15.97c0-11.34-8.34-20.72-19.22-22.34
		h-57.74l0.25-0.25l44.93-44.93l46.87-46.87c17.09-17.09,44.8-17.09,61.89,0l258.17,258.18
		C1515.61,1196.33,1515.61,1224.04,1498.52,1241.13z"/>
	<path class="st6" d="M1221.69,1170.23c0,6.24-2.53,11.89-6.61,15.97c-4.09,4.09-9.74,6.62-15.97,6.62H822.12
		c-12.47,0-22.59-10.11-22.59-22.59c0-6.23,2.53-11.88,6.62-15.97c3.34-3.34,7.72-5.64,12.61-6.37c1.1-0.17,2.22-0.25,3.36-0.25
		h376.99C1211.58,1147.64,1221.69,1157.76,1221.69,1170.23z"/>
	<path class="st3" d="M906.6,1708.51c0,6.24-2.39,11.89-6.23,15.97c-3.86,4.09-9.17,6.62-15.05,6.62h-355.3
		c-1.04,0-2.08-0.08-3.09-0.24c-10.3-1.59-18.2-10.98-18.2-22.35c0-6.23,2.39-11.88,6.24-15.97c1.2-1.27,2.53-2.38,3.98-3.32
		c3.23-2.09,7.01-3.29,11.07-3.29h355.3c1.04,0,2.08,0.08,3.09,0.24C898.7,1687.75,906.6,1697.15,906.6,1708.51z"/>
	<path class="st5" d="M1500,2530.55c0,6.24-3.24,11.89-8.45,15.97c-3.23,2.52-7.2,4.45-11.65,5.55c-2.77,0.7-5.71,1.07-8.77,1.07
		H989.11c-1.41,0-2.82-0.08-4.2-0.24c-13.97-1.59-24.69-10.98-24.69-22.35c0-6.23,3.24-11.88,8.47-15.97
		c5.22-4.08,12.44-6.61,20.42-6.61h482.02c1.41,0,2.82,0.08,4.18,0.24C1489.28,2509.79,1500,2519.19,1500,2530.55z"/>
	<path class="st5" d="M1681.22,2598.5l-44.98,44.98h-254.49c-0.87,0-1.74-0.08-2.59-0.24c-8.61-1.59-15.22-10.98-15.22-22.35
		c0-6.23,2-11.88,5.22-15.97c3.22-4.08,7.67-6.61,12.59-6.61h297.16C1679.69,2598.31,1680.47,2598.37,1681.22,2598.5z"/>
	<path class="st5" d="M1439.08,2440.21c0,6.24-2,11.89-5.21,15.97c-1.99,2.52-4.44,4.45-7.18,5.55c-1.71,0.7-3.52,1.07-5.41,1.07
		h-297.16c-0.87,0-1.74-0.08-2.59-0.24c-8.61-1.59-15.22-10.98-15.22-22.35c0-6.23,2-11.88,5.22-15.97
		c3.22-4.08,7.67-6.61,12.59-6.61h297.16c0.87,0,1.74,0.08,2.58,0.24C1432.47,2419.45,1439.08,2428.85,1439.08,2440.21z"/>
	<path class="st2" d="M1274.87,2211.02c0,6.24-2,11.89-5.21,15.97c-1.99,2.52-4.44,4.45-7.18,5.55c-1.71,0.7-3.52,1.07-5.41,1.07
		H959.91c-0.87,0-1.74-0.08-2.59-0.24c-8.61-1.59-15.22-10.98-15.22-22.35c0-6.23,2-11.88,5.22-15.97
		c3.22-4.08,7.67-6.61,12.59-6.61h297.16c0.87,0,1.74,0.08,2.58,0.24C1268.26,2190.26,1274.87,2199.66,1274.87,2211.02z"/>
	<path class="st2" d="M1186.1,2120.68c0,6.24-2.74,11.89-7.14,15.97c-2.73,2.52-6.08,4.45-9.83,5.55c-2.34,0.7-4.83,1.07-7.41,1.07
		H754.55c-1.19,0-2.38-0.08-3.54-0.24c-11.8-1.59-20.86-10.98-20.86-22.35c0-6.23,2.74-11.88,7.15-15.97
		c4.42-4.08,10.51-6.61,17.25-6.61h407.17c1.19,0,2.38,0.08,3.54,0.24C1177.05,2099.92,1186.1,2109.32,1186.1,2120.68z"/>
	<path class="st2" d="M1283.1,2030.34c0,6.24-2.73,11.89-7.13,15.97c-2.73,2.52-6.09,4.45-9.84,5.55c-2.33,0.7-4.82,1.07-7.41,1.07
		H851.55c-1.19,0-2.38-0.08-3.54-0.24c-11.8-1.59-20.85-10.98-20.85-22.35c0-6.23,2.74-11.88,7.15-15.97
		c4.41-4.08,10.51-6.61,17.24-6.61h407.17c1.19,0,2.38,0.08,3.54,0.24C1274.05,2009.58,1283.1,2018.98,1283.1,2030.34z"/>
	<path class="st3" d="M693.94,1622.81c0,6.24-2.74,11.89-7.14,15.97c-2.73,2.52-6.09,4.45-9.83,5.55c-2.34,0.7-4.82,1.07-7.41,1.07
		H262.39c-1.19,0-2.38-0.08-3.54-0.24c-11.8-1.59-20.86-10.98-20.86-22.35c0-6.23,2.74-11.88,7.15-15.97
		c4.41-4.08,10.51-6.61,17.25-6.61h407.16c1.19,0,2.38,0.08,3.54,0.24C684.88,1602.05,693.94,1611.45,693.94,1622.81z"/>
	<path class="st3" d="M719.08,1532.47c0,6.24-3.61,11.89-9.46,15.97c-5.86,4.09-13.93,6.62-22.87,6.62H147.01
		c-1.59,0-3.16-0.08-4.69-0.24c-15.66-1.59-27.65-10.98-27.65-22.35c0-6.23,3.63-11.88,9.48-15.97c5.84-4.08,13.93-6.61,22.86-6.61
		h539.74c1.59,0,3.17,0.08,4.7,0.24c1.75,0.18,3.44,0.45,5.07,0.82C709.61,1513.83,719.08,1522.38,719.08,1532.47z"/>
	<path class="st3" d="M760.52,1443.19c0,6.24-2.06,11.89-5.39,15.97c-3.33,4.09-7.93,6.62-13.01,6.62H434.91
		c-0.91,0-1.8-0.08-2.68-0.24c-8.9-1.59-15.73-10.98-15.73-22.35c0-6.23,2.06-11.88,5.39-15.97c3.33-4.08,7.93-6.61,13.02-6.61
		h307.21c0.9,0,1.8,0.08,2.67,0.24C753.69,1422.43,760.52,1431.83,760.52,1443.19z"/>
	<path class="st6" d="M1114.52,1080.37c0,6.24-2.53,11.89-6.61,15.97c-4.09,4.09-9.73,6.62-15.97,6.62H714.95
		c-1.11,0-2.21-0.08-3.28-0.24c-10.93-1.59-19.31-10.98-19.31-22.35c0-6.23,2.53-11.88,6.62-15.97c4.08-4.08,9.73-6.61,15.97-6.61
		h376.99c1.11,0,2.21,0.08,3.28,0.24C1106.14,1059.61,1114.52,1069.01,1114.52,1080.37z"/>
	<path class="st7" d="M869.39,1013.11c-1.14,0-2.27-0.08-3.36-0.25h274.76c1.14,0,2.26,0.08,3.36,0.25H869.39z"/>
	<path class="st7" d="M1091.94,1057.79c1.11,0,2.21,0.08,3.28,0.24H763.8c-1.11,0-2.21-0.08-3.28-0.24H1091.94z"/>
	<path class="st6" d="M1268.96,990.52c0,6.24-2.53,11.88-6.61,15.97c-4.09,4.09-9.73,6.62-15.97,6.62H869.39
		c-1.14,0-2.27-0.08-3.36-0.25c-10.89-1.62-19.23-11.01-19.23-22.34c0-6.24,2.53-11.89,6.62-15.98c4.08-4.08,9.73-6.61,15.97-6.61
		h376.99C1258.85,967.93,1268.96,978.04,1268.96,990.52z"/>
	<path class="st5" d="M1472.37,697.21h-376.99c-12.47,0-22.59-10.11-22.59-22.59v0c0-12.47,10.11-22.59,22.59-22.59h376.99
		c12.47,0,22.59,10.11,22.59,22.59v0C1494.96,687.1,1484.84,697.21,1472.37,697.21z"/>
	<path class="st5" d="M1534.43,606.75h-255.99c-12.47,0-22.59-10.11-22.59-22.59l0,0c0-12.47,10.11-22.59,22.59-22.59h255.99
		c12.47,0,22.59,10.11,22.59,22.59l0,0C1557.02,596.64,1546.9,606.75,1534.43,606.75z"/>
	<path class="st5" d="M1882.14,857.52l-258.17,258.17c-17.09,17.09-44.8,17.09-61.9,0L1303.9,857.51
		c-17.09-17.09-17.09-44.8,0-61.89l143.71-143.7h58.32c6.23,0,11.88-2.53,15.97-6.61c4.08-4.09,6.61-9.73,6.61-15.97
		c0-12.48-10.11-22.59-22.58-22.59h-13.15l69.3-69.3c17.09-17.09,44.8-17.09,61.89,0l258.17,258.17
		C1899.23,812.71,1899.23,840.42,1882.14,857.52z"/>
	<path class="st6" d="M1880.9,1632.83l-37.65,37.65l-71.91,71.91l-71.9,71.9l-71.91,71.91l-4.8,4.8
		c-7.99,7.98-18.29,12.24-28.74,12.76c-11.93,0.6-24.05-3.65-33.16-12.76l-258.17-258.17c-8.54-8.55-12.82-19.75-12.82-30.95
		c0-11.2,4.28-22.4,12.82-30.95l181.26-181.26l35.66-35.66l36.24-36.24l5.01-5.01c9.11-9.11,21.24-13.36,33.16-12.76
		c10.45,0.52,20.75,4.78,28.74,12.76l4.8,4.8l253.37,253.37C1897.99,1588.02,1897.99,1615.74,1880.9,1632.83z"/>
	<polygon class="st3" points="1699.44,1389.47 1699.44,1814.29 1627.53,1886.2 1627.53,1317.56 	"/>
	<polygon class="st3" points="1843.25,1533.28 1843.25,1670.48 1771.34,1742.39 1771.34,1461.37 	"/>
	<polygon class="st3" points="1555.82,1317.77 1555.82,1885.99 1483.92,1814.09 1483.92,1389.67 1519.58,1354.01 	"/>
	<polygon class="st3" points="1412.01,1461.58 1412.01,1742.18 1340.1,1670.27 1340.1,1533.49 	"/>
	<g class="st8">
		<path class="st9" d="M700.57,1679.91l80.47-217.58c8.2-22.13,22.46-33.2,42.77-33.2c20.57,0,34.83,11.07,42.77,33.2l78.52,217.58
			c2.08,5.73,3.12,10.68,3.12,14.84c0,7.68-2.73,14-8.2,18.95c-5.47,4.95-11.91,7.42-19.34,7.42c-15.11,0-24.87-6.9-29.3-20.7
			l-11.91-37.7H768.34l-12.11,37.3c-4.56,14.06-14.13,21.09-28.71,21.09c-8.08,0-15.04-2.64-20.9-7.91s-8.79-11.94-8.79-20.02
			C697.84,1691.89,698.74,1687.46,700.57,1679.91z M823.42,1491.63l-37.89,116.02h75.98l-37.3-116.02H823.42z"/>
	</g>
	<g class="st8">
		<path class="st9" d="M2217.97,1596.4c0-47.02,13.92-86.06,41.75-117.11c29-32.37,66.72-48.56,113.16-48.56
			c38.96,0,67.75,8.57,86.35,25.71c6.88,6.3,10.33,14.58,10.33,24.83c0,8.35-2.6,15.46-7.8,21.31c-5.2,5.86-11.9,8.79-20.1,8.79
			c-4.1,0-13.92-2.64-29.44-7.91c-15.53-5.27-28.64-7.91-39.33-7.91c-27.54,0-49,10.69-64.38,32.08
			c-13.48,18.75-20.21,42.12-20.21,70.09c0,27.69,7.03,50.76,21.09,69.21c15.38,20.21,36.55,30.32,63.5,30.32
			c11.13,0,24.61-3.15,40.43-9.45c15.82-6.3,26.15-9.45,30.98-9.45c13.62,0,22.92,7.03,27.91,21.09c1.32,3.66,1.98,6.81,1.98,9.45
			c0,18.9-12.82,33.11-38.45,42.63c-18.75,7.03-39.7,10.55-62.84,10.55c-46,0-83.64-16.55-112.94-49.66
			C2231.95,1680.77,2217.97,1642.1,2217.97,1596.4z"/>
	</g>
	<g class="st8">
		<path class="st9" d="M1066.34,1996.09c0-47.02,13.92-86.06,41.75-117.11c29-32.37,66.72-48.56,113.16-48.56
			c38.96,0,67.75,8.57,86.35,25.71c6.88,6.3,10.33,14.58,10.33,24.83c0,8.35-2.6,15.46-7.8,21.31c-5.2,5.86-11.9,8.79-20.1,8.79
			c-4.1,0-13.92-2.64-29.44-7.91c-15.53-5.27-28.64-7.91-39.33-7.91c-27.54,0-49,10.69-64.38,32.08
			c-13.48,18.75-20.21,42.12-20.21,70.09c0,27.69,7.03,50.76,21.09,69.21c15.38,20.21,36.55,30.32,63.5,30.32
			c11.13,0,24.61-3.15,40.43-9.45c15.82-6.3,26.15-9.45,30.98-9.45c13.62,0,22.92,7.03,27.91,21.09c1.32,3.66,1.98,6.81,1.98,9.45
			c0,18.9-12.82,33.11-38.45,42.63c-18.75,7.03-39.7,10.55-62.84,10.55c-46,0-83.64-16.55-112.94-49.66
			C1080.32,2080.47,1066.34,2041.8,1066.34,1996.09z"/>
	</g>
	<g class="st8">
		<path class="st9" d="M1984.83,1836.24c29.56,0,52.6,6.84,69.14,20.51c6.12,5.08,9.18,11.59,9.18,19.53
			c0,8.47-2.34,15.43-7.03,20.9c-4.95,5.86-11.52,8.79-19.73,8.79c-4.82,0-11.07-1.37-18.75-4.1l-18.36-6.45
			c-4.82-1.04-10.16-1.56-16.02-1.56c-8.73,0-16.15,2.08-22.27,6.25c-7.03,4.82-10.55,11.4-10.55,19.73
			c0,10.55,11.59,19.21,34.77,25.98c14.45,4.17,25.39,7.55,32.81,10.16c12.76,4.43,23.31,9.31,31.64,14.65
			c22.92,14.72,34.38,37.11,34.38,67.19c0,28.26-10.16,51.04-30.47,68.36c-19.14,16.41-43.1,24.61-71.88,24.61
			c-39.84,0-68.69-7.35-86.52-22.07c-7.16-5.86-10.74-13.48-10.74-22.85c0-8.07,2.47-14.81,7.42-20.21
			c4.95-5.4,11.39-8.11,19.34-8.11c6.25,0,16.53,2.54,30.86,7.62c14.97,5.34,27.08,8.01,36.33,8.01c11.59,0,21.09-2.73,28.52-8.2
			c8.2-6.25,12.3-14.97,12.3-26.17c0-13.02-11.46-22.92-34.38-29.69c-7.42-1.95-18.49-5.01-33.2-9.18
			c-10.94-3.38-21.36-7.81-31.25-13.28c-23.18-12.89-34.77-32.75-34.77-59.57c0-27.34,9.83-49.54,29.49-66.6
			C1933.85,1844.31,1957.09,1836.24,1984.83,1836.24z"/>
	</g>
</g>
<g>
	<path class="st10" d="M1233.27,1382.99h-46.24l-8.96,26.22h-26.69l45.33-121.57h27.06l45.15,121.57h-26.69L1233.27,1382.99z
		 M1193.54,1363.87h33.21l-16.29-47.76h-0.54L1193.54,1363.87z"/>
	<path class="st10" d="M1331.99,1384.32c0-2.67-1.4-4.98-4.21-6.93c-2.81-1.95-8.01-3.67-15.61-5.18
		c-11.58-2.17-20.31-5.39-26.2-9.64c-5.88-4.26-8.82-10.06-8.82-17.41c0-7.79,3.54-14.4,10.63-19.83
		c7.09-5.43,16.57-8.14,28.46-8.14c12.49,0,22.43,2.7,29.82,8.1c7.39,5.4,10.93,12.22,10.63,20.46l-0.18,0.5h-25.52
		c0-3.62-1.25-6.57-3.76-8.85c-2.5-2.28-6.17-3.42-10.99-3.42c-4.28,0-7.65,0.96-10.09,2.88c-2.44,1.92-3.66,4.33-3.66,7.22
		c0,2.78,1.28,5.07,3.85,6.85c2.56,1.78,7.77,3.37,15.61,4.76c12.06,2.23,21.02,5.5,26.87,9.81c5.85,4.31,8.78,10.26,8.78,17.83
		c0,8.13-3.77,14.77-11.31,19.91c-7.54,5.15-17.5,7.72-29.86,7.72c-13.03,0-23.33-3.05-30.9-9.14
		c-7.57-6.09-11.17-13.04-10.81-20.83l0.18-0.5h24.16c0.18,4.84,1.9,8.35,5.16,10.52c3.26,2.17,7.51,3.26,12.76,3.26
		c4.89,0,8.61-0.89,11.17-2.67C1330.7,1389.81,1331.99,1387.39,1331.99,1384.32z"/>
	<path class="st10" d="M1427.54,1384.32c0-2.67-1.4-4.98-4.21-6.93c-2.8-1.95-8.01-3.67-15.61-5.18
		c-11.58-2.17-20.31-5.39-26.19-9.64c-5.88-4.26-8.82-10.06-8.82-17.41c0-7.79,3.54-14.4,10.63-19.83
		c7.09-5.43,16.57-8.14,28.46-8.14c12.49,0,22.43,2.7,29.81,8.1c7.39,5.4,10.93,12.22,10.63,20.46l-0.18,0.5h-25.52
		c0-3.62-1.25-6.57-3.76-8.85c-2.5-2.28-6.17-3.42-10.99-3.42c-4.28,0-7.65,0.96-10.09,2.88c-2.44,1.92-3.66,4.33-3.66,7.22
		c0,2.78,1.28,5.07,3.85,6.85c2.56,1.78,7.77,3.37,15.61,4.76c12.06,2.23,21.02,5.5,26.87,9.81c5.85,4.31,8.78,10.26,8.78,17.83
		c0,8.13-3.77,14.77-11.31,19.91c-7.54,5.15-17.49,7.72-29.86,7.72c-13.03,0-23.33-3.05-30.9-9.14
		c-7.57-6.09-11.17-13.04-10.81-20.83l0.18-0.5h24.16c0.18,4.84,1.9,8.35,5.16,10.52c3.26,2.17,7.51,3.26,12.76,3.26
		c4.88,0,8.61-0.89,11.17-2.67C1426.26,1389.81,1427.54,1387.39,1427.54,1384.32z"/>
	<path class="st10" d="M1466.09,1363.2c0-13.47,4.07-24.51,12.22-33.11c8.14-8.6,19.42-12.9,33.84-12.9
		c14.48,0,25.82,4.29,34.02,12.86c8.2,8.57,12.31,19.62,12.31,33.15v1.75c0,13.58-4.09,24.65-12.26,33.19
		c-8.17,8.55-19.47,12.82-33.89,12.82c-14.48,0-25.8-4.27-33.98-12.82c-8.17-8.54-12.26-19.61-12.26-33.19V1363.2z M1492.42,1364.91
		c0,8.23,1.57,14.83,4.71,19.8c3.14,4.97,8.2,7.46,15.2,7.46c6.82,0,11.81-2.5,14.98-7.5s4.75-11.59,4.75-19.76v-1.75
		c0-8-1.6-14.53-4.8-19.59c-3.2-5.06-8.23-7.59-15.11-7.59c-6.82,0-11.81,2.54-14.98,7.63s-4.75,11.6-4.75,19.55V1364.91z"/>
	<path class="st10" d="M1615.84,1392.17c4.71,0,8.47-1.26,11.31-3.78c2.83-2.52,4.25-5.88,4.25-10.08h23.98l0.27,0.5
		c0.24,9.13-3.48,16.77-11.17,22.92c-7.69,6.15-17.24,9.23-28.64,9.23c-14.6,0-25.85-4.26-33.75-12.77
		c-7.9-8.52-11.85-19.45-11.85-32.81v-2.5c0-13.3,3.94-24.24,11.81-32.81c7.87-8.57,19.11-12.86,33.71-12.86
		c12.06,0,21.79,3.17,29.18,9.52c7.39,6.35,10.96,14.7,10.72,25.05l-0.18,0.5h-24.07c0-4.68-1.39-8.56-4.16-11.65
		c-2.78-3.09-6.61-4.63-11.49-4.63c-7,0-11.93,2.5-14.79,7.5c-2.87,5-4.3,11.45-4.3,19.34v2.5c0,8.06,1.43,14.55,4.3,19.47
		C1603.82,1389.71,1608.78,1392.17,1615.84,1392.17z"/>
	<path class="st10" d="M1698.45,1297.24h-26.42v-18.29h26.42V1297.24z M1698.45,1409.21h-26.42v-90.34h26.42V1409.21z"/>
	<path class="st10" d="M1777.63,1409.21c-0.97-2.06-1.8-4.23-2.49-6.51c-0.69-2.28-1.19-4.62-1.49-7.01
		c-2.71,4.4-6.29,8.04-10.72,10.94s-9.73,4.34-15.88,4.34c-10.26,0-18.16-2.43-23.71-7.31c-5.55-4.87-8.33-11.51-8.33-19.91
		c0-8.85,3.69-15.71,11.08-20.58c7.39-4.87,18.17-7.31,32.35-7.31h14.75v-7.18c0-4.34-1.24-7.71-3.71-10.1
		c-2.47-2.39-6.12-3.59-10.95-3.59c-4.28,0-7.59,0.96-9.91,2.88c-2.32,1.92-3.48,4.58-3.48,7.97l-25.52-0.08l-0.09-0.5
		c-0.42-7.63,3.17-14.21,10.77-19.75c7.6-5.54,17.58-8.31,29.95-8.31c11.7,0,21.2,2.74,28.5,8.22c7.3,5.48,10.95,13.29,10.95,23.42
		v37.32c0,4.23,0.35,8.21,1.04,11.94c0.69,3.73,1.79,7.43,3.3,11.1H1777.63z M1753.47,1392.92c4.64,0,8.78-1.06,12.4-3.17
		c3.62-2.11,6.06-4.56,7.33-7.35v-12.77h-14.75c-5.61,0-9.86,1.29-12.76,3.88c-2.9,2.59-4.34,5.72-4.34,9.39
		c0,3.01,1.09,5.43,3.26,7.26S1749.73,1392.92,1753.47,1392.92z"/>
	<path class="st10" d="M1860.78,1392.17c4.71,0,8.47-1.26,11.31-3.78c2.83-2.52,4.25-5.88,4.25-10.08h23.98l0.27,0.5
		c0.24,9.13-3.48,16.77-11.17,22.92c-7.69,6.15-17.24,9.23-28.64,9.23c-14.6,0-25.85-4.26-33.75-12.77
		c-7.9-8.52-11.85-19.45-11.85-32.81v-2.5c0-13.3,3.94-24.24,11.81-32.81c7.87-8.57,19.11-12.86,33.71-12.86
		c12.06,0,21.79,3.17,29.18,9.52c7.39,6.35,10.96,14.7,10.72,25.05l-0.18,0.5h-24.07c0-4.68-1.39-8.56-4.16-11.65
		c-2.78-3.09-6.61-4.63-11.49-4.63c-7,0-11.93,2.5-14.79,7.5c-2.87,5-4.3,11.45-4.3,19.34v2.5c0,8.06,1.43,14.55,4.3,19.47
		C1848.76,1389.71,1853.73,1392.17,1860.78,1392.17z"/>
	<path class="st10" d="M1943.4,1297.24h-26.42v-18.29h26.42V1297.24z M1943.4,1409.21h-26.42v-90.34h26.42V1409.21z"/>
	<path class="st10" d="M1961.04,1363.2c0-13.47,4.07-24.51,12.22-33.11c8.14-8.6,19.42-12.9,33.84-12.9
		c14.48,0,25.82,4.29,34.02,12.86c8.2,8.57,12.31,19.62,12.31,33.15v1.75c0,13.58-4.09,24.65-12.26,33.19
		c-8.17,8.55-19.47,12.82-33.89,12.82c-14.48,0-25.8-4.27-33.98-12.82c-8.17-8.54-12.26-19.61-12.26-33.19V1363.2z M1987.37,1364.91
		c0,8.23,1.57,14.83,4.71,19.8c3.14,4.97,8.2,7.46,15.2,7.46c6.82,0,11.81-2.5,14.98-7.5s4.75-11.59,4.75-19.76v-1.75
		c0-8-1.6-14.53-4.8-19.59c-3.2-5.06-8.23-7.59-15.11-7.59c-6.82,0-11.81,2.54-14.98,7.63s-4.75,11.6-4.75,19.55V1364.91z
		 M2011.8,1283.63h27.96l0.18,0.5l-25.06,21.71h-21.08L2011.8,1283.63z"/>
	<path class="st10" d="M2217.48,1367.79l0.18,0.5c0.24,13.08-4.09,23.46-12.98,31.14c-8.9,7.68-21.25,11.52-37.05,11.52
		c-15.87,0-28.75-4.7-38.64-14.11c-9.89-9.41-14.84-21.51-14.84-36.32v-24.13c0-14.75,4.83-26.86,14.48-36.32
		c9.65-9.46,22.2-14.19,37.64-14.19c16.29,0,29.01,3.85,38.18,11.56c9.17,7.71,13.63,18.22,13.39,31.52l-0.18,0.5h-25.7
		c0-8.02-2.08-14.15-6.24-18.41c-4.16-4.26-10.65-6.39-19.45-6.39c-7.9,0-14.18,2.96-18.82,8.88c-4.65,5.92-6.97,13.47-6.97,22.65
		v24.27c0,9.29,2.44,16.89,7.33,22.82c4.89,5.92,11.49,8.88,19.82,8.88c8.26,0,14.37-2.05,18.32-6.14
		c3.95-4.09,5.93-10.17,5.93-18.24H2217.48z"/>
	<path class="st10" d="M2291.77,1409.21c-0.97-2.06-1.8-4.23-2.49-6.51c-0.69-2.28-1.19-4.62-1.49-7.01
		c-2.71,4.4-6.29,8.04-10.72,10.94s-9.73,4.34-15.88,4.34c-10.26,0-18.16-2.43-23.71-7.31c-5.55-4.87-8.33-11.51-8.33-19.91
		c0-8.85,3.69-15.71,11.08-20.58c7.39-4.87,18.17-7.31,32.35-7.31h14.75v-7.18c0-4.34-1.24-7.71-3.71-10.1
		c-2.47-2.39-6.12-3.59-10.95-3.59c-4.28,0-7.59,0.96-9.91,2.88c-2.32,1.92-3.48,4.58-3.48,7.97l-25.52-0.08l-0.09-0.5
		c-0.42-7.63,3.17-14.21,10.77-19.75c7.6-5.54,17.58-8.31,29.95-8.31c11.7,0,21.2,2.74,28.5,8.22c7.3,5.48,10.95,13.29,10.95,23.42
		v37.32c0,4.23,0.35,8.21,1.04,11.94c0.69,3.73,1.79,7.43,3.3,11.1H2291.77z M2267.61,1392.92c4.64,0,8.78-1.06,12.4-3.17
		c3.62-2.11,6.06-4.56,7.33-7.35v-12.77h-14.75c-5.61,0-9.86,1.29-12.76,3.88c-2.9,2.59-4.34,5.72-4.34,9.39
		c0,3.01,1.09,5.43,3.26,7.26S2263.87,1392.92,2267.61,1392.92z"/>
	<path class="st10" d="M2365.24,1296.74v22.13h16.47v17.12h-16.47v46.01c0,3.51,0.78,6.01,2.35,7.51c1.57,1.5,3.68,2.25,6.33,2.25
		c1.39,0,2.58-0.07,3.57-0.21c1-0.14,2.16-0.38,3.48-0.71l2.26,17.62c-2.65,0.83-5.25,1.46-7.78,1.88
		c-2.53,0.42-5.28,0.63-8.23,0.63c-9.11,0-16.12-2.31-21.04-6.93c-4.92-4.62-7.37-11.94-7.37-21.96v-46.09h-14.3v-17.12h14.3v-22.13
		H2365.24z"/>
	<path class="st10" d="M2456,1409.21c-0.97-2.06-1.8-4.23-2.49-6.51c-0.69-2.28-1.19-4.62-1.49-7.01
		c-2.71,4.4-6.29,8.04-10.72,10.94s-9.73,4.34-15.88,4.34c-10.26,0-18.16-2.43-23.71-7.31c-5.55-4.87-8.33-11.51-8.33-19.91
		c0-8.85,3.69-15.71,11.08-20.58c7.39-4.87,18.17-7.31,32.35-7.31h14.75v-7.18c0-4.34-1.24-7.71-3.71-10.1
		c-2.47-2.39-6.12-3.59-10.95-3.59c-4.28,0-7.59,0.96-9.91,2.88c-2.32,1.92-3.48,4.58-3.48,7.97l-25.52-0.08l-0.09-0.5
		c-0.42-7.63,3.17-14.21,10.77-19.75c7.6-5.54,17.58-8.31,29.95-8.31c11.7,0,21.2,2.74,28.5,8.22c7.3,5.48,10.95,13.29,10.95,23.42
		v37.32c0,4.23,0.35,8.21,1.04,11.94c0.69,3.73,1.79,7.43,3.3,11.1H2456z M2431.84,1392.92c4.64,0,8.78-1.06,12.4-3.17
		c3.62-2.11,6.06-4.56,7.33-7.35v-12.77h-14.75c-5.61,0-9.86,1.29-12.76,3.88c-2.9,2.59-4.34,5.72-4.34,9.39
		c0,3.01,1.09,5.43,3.26,7.26S2428.1,1392.92,2431.84,1392.92z"/>
	<path class="st10" d="M2525.85,1409.21h-26.42v-130.25h26.42V1409.21z"/>
	<path class="st10" d="M2605.03,1409.21c-0.97-2.06-1.8-4.23-2.49-6.51c-0.69-2.28-1.19-4.62-1.49-7.01
		c-2.71,4.4-6.29,8.04-10.72,10.94s-9.73,4.34-15.88,4.34c-10.26,0-18.16-2.43-23.71-7.31c-5.55-4.87-8.33-11.51-8.33-19.91
		c0-8.85,3.69-15.71,11.08-20.58c7.39-4.87,18.17-7.31,32.35-7.31h14.75v-7.18c0-4.34-1.24-7.71-3.71-10.1
		c-2.47-2.39-6.12-3.59-10.95-3.59c-4.28,0-7.59,0.96-9.91,2.88c-2.32,1.92-3.48,4.58-3.48,7.97l-25.52-0.08l-0.09-0.5
		c-0.42-7.63,3.17-14.21,10.77-19.75c7.6-5.54,17.58-8.31,29.95-8.31c11.7,0,21.2,2.74,28.5,8.22c7.3,5.48,10.95,13.29,10.95,23.42
		v37.32c0,4.23,0.35,8.21,1.04,11.94c0.69,3.73,1.79,7.43,3.3,11.1H2605.03z M2580.87,1392.92c4.64,0,8.78-1.06,12.4-3.17
		c3.62-2.11,6.06-4.56,7.33-7.35v-12.77h-14.75c-5.61,0-9.86,1.29-12.76,3.88c-2.9,2.59-4.34,5.72-4.34,9.39
		c0,3.01,1.09,5.43,3.26,7.26S2577.13,1392.92,2580.87,1392.92z"/>
	<path class="st10" d="M2671.26,1318.86l1.18,12.94c3.26-4.62,7.27-8.21,12.03-10.77c4.76-2.56,10.1-3.84,16.02-3.84
		c9.89,0,17.61,2.87,23.17,8.6c5.55,5.73,8.32,14.72,8.32,26.97v56.44h-26.51v-56.49c0-6.08-1.33-10.39-3.98-12.93
		c-2.66-2.54-6.67-3.81-12.04-3.81c-3.5,0-6.64,0.66-9.41,1.97c-2.78,1.31-5.1,3.17-6.97,5.56v65.69h-26.42v-90.34H2671.26z"/>
	<path class="st10" d="M2809.16,1409.21c-0.97-2.06-1.8-4.23-2.49-6.51c-0.69-2.28-1.19-4.62-1.49-7.01
		c-2.71,4.4-6.29,8.04-10.72,10.94s-9.73,4.34-15.88,4.34c-10.26,0-18.16-2.43-23.71-7.31c-5.55-4.87-8.33-11.51-8.33-19.91
		c0-8.85,3.69-15.71,11.08-20.58c7.39-4.87,18.17-7.31,32.35-7.31h14.75v-7.18c0-4.34-1.24-7.71-3.71-10.1
		c-2.47-2.39-6.12-3.59-10.95-3.59c-4.28,0-7.59,0.96-9.91,2.88c-2.32,1.92-3.48,4.58-3.48,7.97l-25.52-0.08l-0.09-0.5
		c-0.42-7.63,3.17-14.21,10.77-19.75c7.6-5.54,17.58-8.31,29.95-8.31c11.7,0,21.2,2.74,28.5,8.22c7.3,5.48,10.95,13.29,10.95,23.42
		v37.32c0,4.23,0.35,8.21,1.04,11.94c0.69,3.73,1.79,7.43,3.3,11.1H2809.16z M2785,1392.92c4.64,0,8.78-1.06,12.4-3.17
		c3.62-2.11,6.06-4.56,7.33-7.35v-12.77h-14.75c-5.61,0-9.86,1.29-12.76,3.88c-2.9,2.59-4.34,5.72-4.34,9.39
		c0,3.01,1.09,5.43,3.26,7.26S2781.26,1392.92,2785,1392.92z"/>
	<path class="st10" d="M1158.03,1541.87c0-18.19,4.26-32.87,12.77-44.03c8.51-11.16,20.51-16.74,35.99-16.74
		c6.24,0,11.86,1.24,16.87,3.73c5.01,2.49,9.4,6.04,13.17,10.66v-63.22h33.85v166.31h-29l-2.77-14.07
		c-3.93,5.33-8.57,9.38-13.92,12.15c-5.35,2.77-11.5,4.16-18.43,4.16c-15.33,0-27.25-5.19-35.76-15.57
		c-8.51-10.38-12.77-24.09-12.77-41.15V1541.87z M1191.65,1544.12c0,10.15,1.85,18.14,5.55,23.97c3.7,5.83,9.71,8.74,18.02,8.74
		c4.85,0,9.09-0.91,12.71-2.74c3.62-1.82,6.59-4.49,8.9-7.99v-49.44c-2.31-3.64-5.26-6.49-8.84-8.53
		c-3.58-2.04-7.76-3.06-12.54-3.06c-8.24,0-14.27,3.4-18.08,10.19c-3.81,6.79-5.72,15.66-5.72,26.6V1544.12z"/>
	<path class="st10" d="M1352.13,1600.82c-18.02,0-32.43-5.33-43.21-15.99c-10.78-10.66-16.17-24.2-16.17-40.62v-4.26
		c0-17.13,5.1-31.24,15.31-42.32c10.21-11.09,23.9-16.59,41.07-16.52c16.87,0,29.96,4.69,39.28,14.07
		c9.32,9.38,13.98,22.07,13.98,38.06v16.95h-74.64l-0.23,0.64c0.62,7.58,3.37,13.81,8.26,18.69c4.89,4.88,11.53,7.33,19.93,7.33
		c7.47,0,13.67-0.69,18.6-2.08c4.93-1.39,10.32-3.57,16.17-6.56l9.13,19.24c-5.08,3.86-11.75,7.05-19.99,9.58
		C1371.39,1599.56,1362.22,1600.82,1352.13,1600.82z M1349.13,1505.08c-6.24,0-11.17,2.2-14.79,6.61c-3.62,4.41-5.85,10.2-6.7,17.38
		l0.35,0.53h41.36v-2.77c0-6.61-1.68-11.89-5.03-15.83C1360.97,1507.06,1355.91,1505.08,1349.13,1505.08z"/>
	<path class="st10" d="M1574.54,1558.07c0-5.97-2.29-10.77-6.87-14.39c-4.58-3.62-12.61-7.04-24.09-10.23
		c-20.03-5.33-35.16-11.66-45.4-18.98c-10.25-7.32-15.37-17.34-15.37-30.06c0-12.72,5.87-23.12,17.62-31.18
		c11.74-8.07,26.75-12.1,45-12.1c18.49,0,33.54,4.53,45.17,13.59c11.63,9.06,17.25,20.24,16.87,33.53l-0.23,0.64h-32.7
		c0-7.18-2.6-12.99-7.8-17.43c-5.2-4.44-12.5-6.66-21.89-6.66c-9.01,0-15.98,1.85-20.91,5.54c-4.93,3.7-7.39,8.42-7.39,14.18
		c0,5.26,2.64,9.58,7.91,12.95c5.28,3.38,14.38,6.95,27.32,10.71c18.56,4.76,32.62,11.05,42.17,18.87
		c9.55,7.82,14.33,18.09,14.33,30.81c0,13.29-5.68,23.77-17.04,31.45c-11.36,7.68-26.36,11.51-45,11.51
		c-18.33,0-34.31-4.35-47.95-13.06c-13.63-8.71-20.26-20.91-19.87-36.62l0.23-0.64h32.81c0,9.24,3.06,16.01,9.19,20.31
		c6.12,4.3,14.65,6.45,25.59,6.45c9.17,0,16.17-1.74,21.03-5.22C1572.12,1568.56,1574.54,1563.9,1574.54,1558.07z"/>
	<path class="st10" d="M1743.8,1544.11c0,17.06-4.28,30.78-12.83,41.15c-8.55,10.38-20.49,15.57-35.82,15.57
		c-6.55,0-12.36-1.12-17.45-3.36c-5.08-2.24-9.44-5.53-13.06-9.86v55.33h-33.62v-159.7h30.39l1.96,13.65
		c3.7-5.05,8.15-8.94,13.34-11.67c5.2-2.74,11.26-4.1,18.2-4.1c15.48,0,27.5,5.58,36.05,16.74c8.55,11.16,12.83,25.84,12.83,44.03
		V1544.11z M1710.07,1541.71c0-10.89-1.96-19.72-5.89-26.48c-3.93-6.76-9.94-10.14-18.02-10.14c-5.08,0-9.42,0.96-13,2.88
		c-3.58,1.92-6.41,4.66-8.49,8.22v50.61c2.08,3.28,4.91,5.77,8.49,7.47c3.58,1.71,7.99,2.56,13.23,2.56
		c8.16,0,14.15-2.95,17.97-8.86c3.81-5.91,5.72-13.92,5.72-24.02V1541.71z"/>
	<path class="st10" d="M1819.94,1600.82c-18.02,0-32.43-5.33-43.21-15.99c-10.78-10.66-16.17-24.2-16.17-40.62v-4.26
		c0-17.13,5.1-31.24,15.31-42.32c10.21-11.09,23.9-16.59,41.07-16.52c16.87,0,29.96,4.69,39.28,14.07
		c9.32,9.38,13.98,22.07,13.98,38.06v16.95h-74.64l-0.23,0.64c0.62,7.58,3.37,13.81,8.26,18.69c4.89,4.88,11.53,7.33,19.93,7.33
		c7.47,0,13.67-0.69,18.6-2.08c4.93-1.39,10.32-3.57,16.18-6.56l9.13,19.24c-5.08,3.86-11.75,7.05-19.99,9.58
		C1839.2,1599.56,1830.03,1600.82,1819.94,1600.82z M1816.94,1505.08c-6.24,0-11.17,2.2-14.79,6.61c-3.62,4.41-5.85,10.2-6.7,17.38
		l0.35,0.53h41.36v-2.77c0-6.61-1.67-11.89-5.03-15.83C1828.78,1507.06,1823.71,1505.08,1816.94,1505.08z"/>
	<path class="st10" d="M1945.18,1600.82c-18.02,0-32.43-5.33-43.21-15.99c-10.78-10.66-16.17-24.2-16.17-40.62v-4.26
		c0-17.13,5.1-31.24,15.31-42.32c10.21-11.09,23.9-16.59,41.07-16.52c16.87,0,29.96,4.69,39.28,14.07
		c9.32,9.38,13.98,22.07,13.98,38.06v16.95h-74.64l-0.23,0.64c0.62,7.58,3.37,13.81,8.26,18.69c4.89,4.88,11.53,7.33,19.93,7.33
		c7.47,0,13.67-0.69,18.6-2.08c4.93-1.39,10.32-3.57,16.18-6.56l9.13,19.24c-5.08,3.86-11.75,7.05-19.99,9.58
		C1964.44,1599.56,1955.27,1600.82,1945.18,1600.82z M1942.18,1505.08c-6.24,0-11.17,2.2-14.79,6.61c-3.62,4.41-5.85,10.2-6.7,17.38
		l0.35,0.53h41.36v-2.77c0-6.61-1.67-11.89-5.03-15.83C1954.02,1507.06,1948.96,1505.08,1942.18,1505.08z"/>
	<path class="st10" d="M2009.88,1541.87c0-18.19,4.25-32.87,12.77-44.03c8.51-11.16,20.51-16.74,35.99-16.74
		c6.24,0,11.86,1.24,16.87,3.73c5.01,2.49,9.4,6.04,13.17,10.66v-63.22h33.85v166.31h-29l-2.77-14.07
		c-3.93,5.33-8.57,9.38-13.92,12.15c-5.35,2.77-11.5,4.16-18.43,4.16c-15.33,0-27.25-5.19-35.76-15.57
		c-8.51-10.38-12.77-24.09-12.77-41.15V1541.87z M2043.5,1544.12c0,10.15,1.85,18.14,5.55,23.97s9.71,8.74,18.02,8.74
		c4.85,0,9.09-0.91,12.71-2.74c3.62-1.82,6.59-4.49,8.9-7.99v-49.44c-2.31-3.64-5.26-6.49-8.84-8.53
		c-3.58-2.04-7.76-3.06-12.54-3.06c-8.24,0-14.27,3.4-18.08,10.19s-5.72,15.66-5.72,26.6V1544.12z"/>
	<path class="st10" d="M2201.1,1576.83c6.01,0,10.82-1.61,14.44-4.82c3.62-3.21,5.43-7.51,5.43-12.88h30.62l0.35,0.64
		c0.31,11.66-4.45,21.41-14.27,29.26c-9.82,7.85-22.01,11.78-36.57,11.78c-18.64,0-33.01-5.44-43.09-16.31
		c-10.09-10.88-15.14-24.84-15.14-41.9v-3.2c0-16.99,5.03-30.95,15.08-41.9c10.05-10.94,24.4-16.42,43.04-16.42
		c15.4,0,27.82,4.05,37.26,12.15c9.43,8.1,14,18.76,13.69,31.98l-0.23,0.64h-30.73c0-5.97-1.77-10.93-5.31-14.87
		c-3.54-3.94-8.43-5.92-14.67-5.92c-8.94,0-15.23,3.2-18.89,9.58c-3.66,6.39-5.49,14.62-5.49,24.7v3.19
		c0,10.29,1.83,18.58,5.49,24.86C2185.75,1573.7,2192.08,1576.83,2201.1,1576.83z"/>
	<path class="st10" d="M2347.48,1581.95c-3.85,6.04-8.74,10.7-14.67,13.97c-5.93,3.27-12.75,4.9-20.45,4.9
		c-13.17,0-23.47-3.89-30.91-11.67c-7.43-7.78-11.15-19.88-11.15-36.3v-69.62h33.62v69.99c0,8.41,1.54,14.44,4.62,18.11
		c3.08,3.67,7.62,5.5,13.63,5.5c5.39,0,10.01-0.8,13.87-2.4c3.85-1.6,7.01-3.97,9.47-7.11v-84.1h33.74v115.35h-28.77
		L2347.48,1581.95z"/>
	<path class="st10" d="M2517.44,1544.11c0,17.2-4.16,30.95-12.48,41.26c-8.32,10.31-20.33,15.46-36.05,15.46
		c-7.24,0-13.58-1.4-19.01-4.21c-5.43-2.81-10.03-6.91-13.81-12.31l-2.54,14.29h-28.88v-166.31h33.62v63.22
		c3.62-4.62,7.95-8.17,13-10.66c5.04-2.49,10.84-3.73,17.39-3.73c15.87,0,27.96,5.53,36.28,16.58
		c8.32,11.05,12.48,25.78,12.48,44.19V1544.11z M2483.82,1541.87c0-11.3-1.79-20.25-5.37-26.86c-3.58-6.61-9.69-9.92-18.31-9.92
		c-5.24,0-9.67,1.02-13.29,3.06c-3.62,2.04-6.47,4.95-8.55,8.74V1566c2.08,3.5,4.95,6.18,8.61,8.04c3.66,1.86,8.15,2.79,13.46,2.79
		c8.7,0,14.79-2.84,18.25-8.53c3.47-5.68,5.2-13.75,5.2-24.19V1541.87z"/>
	<path class="st10" d="M2573.7,1455.62h-33.74v-23.35h33.74V1455.62z M2573.7,1598.58h-33.74v-115.35h33.74V1598.58z"/>
	<path class="st10" d="M2632.28,1483.23l1.5,16.52c4.16-5.9,9.28-10.48,15.37-13.75c6.08-3.27,12.9-4.9,20.45-4.9
		c12.63,0,22.49,3.66,29.58,10.98c7.08,7.32,10.63,18.8,10.63,34.44v72.07h-33.85v-72.13c0-7.76-1.7-13.27-5.08-16.51
		c-3.39-3.24-8.51-4.86-15.37-4.86c-4.47,0-8.47,0.84-12.02,2.51c-3.54,1.67-6.51,4.04-8.9,7.1v83.88h-33.74v-115.35H2632.28z"/>
	<path class="st10" d="M2729.79,1541.87c0-18.19,4.29-32.87,12.88-44.03c8.59-11.16,20.62-16.74,36.11-16.74
		c7.01,0,13.17,1.46,18.49,4.37c5.31,2.92,9.86,7.07,13.63,12.47l2.66-14.71h29.12v114.82c0,15-5.33,26.6-16,34.81
		c-10.67,8.21-25.52,12.31-44.54,12.31c-6.32,0-13.02-0.8-20.1-2.4c-7.09-1.6-13.63-3.79-19.64-6.56l6.24-23.24
		c5.16,2.27,10.42,4,15.77,5.17s11.19,1.76,17.5,1.76c9.24,0,16.04-1.78,20.39-5.33c4.35-3.55,6.53-9.1,6.53-16.63v-10.45
		c-3.7,4.34-8.05,7.64-13.06,9.92c-5.01,2.27-10.74,3.41-17.21,3.41c-15.33,0-27.29-5.21-35.87-15.62
		c-8.59-10.41-12.88-24.11-12.88-41.1V1541.87z M2763.53,1544.12c0,10.15,1.85,18.14,5.55,23.97s9.71,8.74,18.02,8.74
		c5.16,0,9.53-0.87,13.11-2.63c3.58-1.75,6.45-4.31,8.61-7.67v-50.41c-2.16-3.5-5.03-6.22-8.61-8.15c-3.58-1.93-7.88-2.9-12.88-2.9
		c-8.24,0-14.27,3.4-18.08,10.19c-3.81,6.79-5.72,15.66-5.72,26.6V1544.12z"/>
	<g class="st11">
		<polygon class="st12" points="707.77,1767.61 741.77,1767.61 724.77,1784.61 		"/>
		<path class="st12" d="M1056.92,1452.47l-243.81,243.8l-58.22,58.22c-0.95-1.36-2.27-2.3-3.75-2.57c-0.29-0.06-0.6-0.08-0.9-0.08
			H692l-15.77-15.77h21.02c0.66,0,1.29-0.13,1.89-0.37c0.96-0.38,1.81-1.06,2.51-1.94c1.12-1.42,1.82-3.4,1.82-5.58
			c0-3.97-2.31-7.25-5.31-7.8c-0.29-0.06-0.6-0.08-0.9-0.08h-36.8l-25.02-25.03l-244.22-244.22l332.15-332.14L1056.92,1452.47z"/>
		<path class="st13" d="M843.81,1412.72l-84.8-84.8c-7.44-7.44-7.44-19.52,0-26.96l84.8-84.8c7.44-7.44,19.52-7.44,26.96,0
			l84.8,84.8c7.44,7.44,7.44,19.52,0,26.96l-84.8,84.8C863.33,1420.17,851.26,1420.17,843.81,1412.72z"/>
		<path class="st14" d="M979.06,1547.97l-84.58-84.58c-7.51-7.51-7.51-19.68,0-27.18l84.58-84.58c7.51-7.51,19.68-7.51,27.18,0
			l84.58,84.58c7.51,7.51,7.51,19.68,0,27.18l-84.58,84.58C998.74,1555.48,986.57,1555.48,979.06,1547.97z"/>
		<path class="st15" d="M847.92,1683.87l-89.34-89.34c-6.19-6.19-6.19-16.23,0-22.43l89.34-89.34c6.19-6.19,16.23-6.19,22.42,0
			l89.34,89.34c6.19,6.19,6.19,16.23,0,22.43l-89.34,89.34C864.15,1690.07,854.11,1690.07,847.92,1683.87z"/>
		<path class="st16" d="M824.72,1729.49L755,1799.22l-20.42,20.42c-5.97,5.97-15.65,5.97-21.61,0l-20.49-20.49h19.41
			c0.66,0,1.29-0.13,1.89-0.37c0.96-0.38,1.81-1.06,2.51-1.94c1.12-1.42,1.82-3.4,1.82-5.58c0-3.97-2.31-7.25-5.31-7.8
			c-0.29-0.06-0.6-0.08-0.9-0.08H676.7l-15.77-15.77h89.31c0.66,0,1.29-0.13,1.89-0.37c0.96-0.38,1.81-1.06,2.51-1.94
			c1.12-1.42,1.82-3.4,1.82-5.58c0-2-0.59-3.84-1.56-5.23c-0.95-1.36-2.27-2.3-3.75-2.57c-0.29-0.06-0.6-0.08-0.9-0.08H646.47
			c-0.41,0-0.8,0.05-1.18,0.14l-0.14-0.14l-15.77-15.77h67.87c0.66,0,1.29-0.13,1.89-0.37c0.96-0.38,1.81-1.06,2.51-1.94
			c1.12-1.42,1.82-3.4,1.82-5.58c0-3.97-2.31-7.25-5.31-7.8c-0.29-0.06-0.6-0.08-0.9-0.08h-78.83c-0.46-4.43,1-9.02,4.39-12.41
			l12.62-12.62l77.53-77.53c5.97-5.97,15.65-5.97,21.61,0l78.54,78.54l11.61,11.61C830.69,1713.85,830.69,1723.52,824.72,1729.49z"
			/>
		<path class="st17" d="M691.2,1595.97l-90.15,90.15c-5.97,5.97-15.64,5.97-21.61,0l-14.32-14.32l-15.77-15.77h2.45
			c0.9,0,1.77-0.13,2.59-0.37c1.31-0.38,2.48-1.06,3.43-1.94c1.54-1.42,2.49-3.4,2.49-5.58c0-3.97-3.16-7.25-7.28-7.8
			c-0.41-0.06-0.82-0.08-1.24-0.08h-18.22l-15.77-15.77h11.81c0.9,0,1.77-0.13,2.59-0.37c1.31-0.38,2.48-1.06,3.43-1.94
			c1.54-1.42,2.49-3.4,2.49-5.58c0-3.97-3.16-7.25-7.28-7.8c-0.41-0.06-0.82-0.08-1.24-0.08h-27.58l-12.74-12.74
			c-0.93-0.93-1.72-1.95-2.36-3.03c-3.47-5.86-2.68-13.54,2.36-18.58l90.15-90.15c5.97-5.97,15.64-5.97,21.61,0l90.15,90.15
			C697.17,1580.33,697.17,1590,691.2,1595.97z"/>
		<path class="st14" d="M555.84,1460.61l-90.15,90.15c-5.97,5.97-15.65,5.97-21.61,0l-68.95-68.95l-1.15-1.15h27.64
			c0.51-0.33,0.97-0.72,1.39-1.16c1.34-1.42,2.18-3.4,2.18-5.58c0-3.97-2.76-7.25-6.35-7.8c-0.35-0.06-0.72-0.08-1.08-0.08H384.8
			c-0.71,0.24-1.47,0.37-2.26,0.37h-22.81l-5.8-5.8c-2.77-2.77-4.26-6.34-4.45-9.97h34.68c2.6,0,4.96-0.88,6.67-2.31
			c1.7-1.42,2.76-3.4,2.76-5.58c0-3.97-3.5-7.25-8.06-7.8c-0.45-0.06-0.91-0.08-1.37-0.08h-26.09l15.77-15.77h0.24
			c0.46,0,0.93,0.03,1.37,0.08c0.51,0.06,1,0.16,1.48,0.29h30.19c1.77,0,3.38-0.88,4.54-2.31c1.16-1.42,1.88-3.4,1.88-5.58
			c0-3.97-2.38-7.25-5.49-7.8c-0.3-0.06-0.62-0.08-0.93-0.08h-17.89l54.84-54.84c5.97-5.97,15.65-5.97,21.61,0l90.15,90.15
			C561.81,1444.96,561.81,1454.64,555.84,1460.61z"/>
		<path class="st18" d="M691.2,1325.25l-90.15,90.15c-5.97,5.97-15.64,5.97-21.61,0l-90.15-90.15c-4.56-4.56-5.64-11.29-3.23-16.87
			c0.75-1.72,1.82-3.34,3.23-4.75l10.94-10.94l0.09-0.09h36.84c1.71-0.25,3.24-1.06,4.4-2.22c1.43-1.43,2.31-3.4,2.31-5.58
			c0-3.97-2.93-7.25-6.74-7.8h-21.21l15.77-15.77h17.53c0.39,0,0.77,0.03,1.15,0.08h15.91c2.18,0,4.15-0.88,5.58-2.31
			c1.42-1.43,2.31-3.4,2.31-5.58c0-3.96-2.91-7.24-6.71-7.8H547.3l0.09-0.09l15.69-15.69l16.37-16.37c5.97-5.97,15.64-5.97,21.61,0
			l90.15,90.15C697.17,1309.6,697.17,1319.28,691.2,1325.25z"/>
		<path class="st18" d="M594.54,1300.49c0,2.18-0.88,4.15-2.31,5.58c-1.43,1.43-3.4,2.31-5.58,2.31H455.01
			c-4.35,0-7.89-3.53-7.89-7.89c0-2.18,0.88-4.15,2.31-5.58c1.17-1.17,2.7-1.97,4.4-2.22c0.38-0.06,0.78-0.09,1.17-0.09h131.64
			C591.01,1292.6,594.54,1296.14,594.54,1300.49z"/>
		<path class="st14" d="M484.51,1488.45c0,2.18-0.83,4.15-2.18,5.58c-1.35,1.43-3.2,2.31-5.26,2.31H353.02
			c-0.36,0-0.73-0.03-1.08-0.08c-3.6-0.56-6.36-3.83-6.36-7.8c0-2.18,0.83-4.15,2.18-5.58c0.42-0.44,0.88-0.83,1.39-1.16
			c1.13-0.73,2.45-1.15,3.87-1.15h124.06c0.36,0,0.73,0.03,1.08,0.08C481.76,1481.2,484.51,1484.48,484.51,1488.45z"/>
		<path class="st16" d="M691.72,1775.49c0,2.18-1.13,4.15-2.95,5.58c-1.13,0.88-2.51,1.55-4.07,1.94c-0.97,0.24-1.99,0.37-3.06,0.37
			H513.32c-0.49,0-0.98-0.03-1.47-0.08c-4.88-0.56-8.62-3.83-8.62-7.8c0-2.18,1.13-4.15,2.96-5.58c1.82-1.42,4.34-2.31,7.13-2.31
			h168.31c0.49,0,0.98,0.03,1.46,0.08C687.98,1768.24,691.72,1771.52,691.72,1775.49z"/>
		<path class="st16" d="M755,1799.22l-15.71,15.71h-88.86c-0.3,0-0.61-0.03-0.9-0.08c-3.01-0.56-5.31-3.83-5.31-7.8
			c0-2.18,0.7-4.15,1.82-5.58c1.12-1.42,2.68-2.31,4.4-2.31h103.76C754.46,1799.15,754.74,1799.17,755,1799.22z"/>
		<path class="st16" d="M670.45,1743.94c0,2.18-0.7,4.15-1.82,5.58c-0.69,0.88-1.55,1.55-2.51,1.94c-0.6,0.24-1.23,0.37-1.89,0.37
			H560.47c-0.3,0-0.61-0.03-0.9-0.08c-3.01-0.56-5.31-3.83-5.31-7.8c0-2.18,0.7-4.15,1.82-5.58c1.12-1.42,2.68-2.31,4.4-2.31h103.76
			c0.3,0,0.61,0.03,0.9,0.08C668.14,1736.7,670.45,1739.98,670.45,1743.94z"/>
		<path class="st17" d="M613.11,1663.92c0,2.18-0.7,4.15-1.82,5.58c-0.69,0.88-1.55,1.55-2.51,1.94c-0.6,0.24-1.23,0.37-1.89,0.37
			H503.13c-0.3,0-0.61-0.03-0.9-0.08c-3.01-0.56-5.31-3.83-5.31-7.8c0-2.18,0.7-4.15,1.82-5.58c1.12-1.42,2.68-2.31,4.4-2.31h103.76
			c0.3,0,0.61,0.03,0.9,0.08C610.8,1656.67,613.11,1659.95,613.11,1663.92z"/>
		<path class="st17" d="M582.11,1632.37c0,2.18-0.96,4.15-2.49,5.58c-0.95,0.88-2.12,1.55-3.43,1.94c-0.82,0.24-1.69,0.37-2.59,0.37
			H431.42c-0.42,0-0.83-0.03-1.24-0.08c-4.12-0.56-7.28-3.83-7.28-7.8c0-2.18,0.96-4.15,2.5-5.58c1.54-1.42,3.67-2.31,6.02-2.31
			H573.6c0.42,0,0.83,0.03,1.24,0.08C578.95,1625.12,582.11,1628.4,582.11,1632.37z"/>
		<path class="st17" d="M615.98,1600.83c0,2.18-0.95,4.15-2.49,5.58c-0.95,0.88-2.13,1.55-3.44,1.94c-0.81,0.24-1.68,0.37-2.59,0.37
			H465.29c-0.42,0-0.83-0.03-1.24-0.08c-4.12-0.56-7.28-3.83-7.28-7.8c0-2.18,0.96-4.15,2.5-5.58c1.54-1.42,3.67-2.31,6.02-2.31
			h142.18c0.42,0,0.83,0.03,1.24,0.08C612.82,1593.58,615.98,1596.86,615.98,1600.83z"/>
		<path class="st14" d="M410.26,1458.52c0,2.18-0.96,4.15-2.49,5.58c-0.95,0.88-2.12,1.55-3.43,1.94c-0.82,0.24-1.68,0.37-2.59,0.37
			H259.57c-0.42,0-0.83-0.03-1.24-0.08c-4.12-0.56-7.28-3.83-7.28-7.8c0-2.18,0.96-4.15,2.5-5.58c1.54-1.42,3.67-2.31,6.02-2.31
			h142.17c0.42,0,0.83,0.03,1.24,0.08C407.09,1451.27,410.26,1454.56,410.26,1458.52z"/>
		<path class="st14" d="M419.04,1426.98c0,2.18-1.26,4.15-3.3,5.58c-2.05,1.43-4.86,2.31-7.99,2.31H219.28
			c-0.56,0-1.1-0.03-1.64-0.08c-5.47-0.56-9.65-3.83-9.65-7.8c0-2.18,1.27-4.15,3.31-5.58c2.04-1.42,4.86-2.31,7.98-2.31h188.47
			c0.56,0,1.11,0.03,1.64,0.08c0.61,0.06,1.2,0.16,1.77,0.29C415.73,1420.47,419.04,1423.45,419.04,1426.98z"/>
		<path class="st14" d="M433.51,1395.8c0,2.18-0.72,4.15-1.88,5.58c-1.16,1.43-2.77,2.31-4.54,2.31H319.81
			c-0.32,0-0.63-0.03-0.94-0.08c-3.11-0.56-5.49-3.83-5.49-7.8c0-2.18,0.72-4.15,1.88-5.58c1.16-1.42,2.77-2.31,4.55-2.31h107.27
			c0.31,0,0.63,0.03,0.93,0.08C431.12,1388.55,433.51,1391.84,433.51,1395.8z"/>
		<path class="st18" d="M557.12,1269.11c0,2.18-0.88,4.15-2.31,5.58c-1.43,1.43-3.4,2.31-5.58,2.31H417.59
			c-0.39,0-0.77-0.03-1.15-0.08c-3.82-0.56-6.74-3.83-6.74-7.8c0-2.18,0.88-4.15,2.31-5.58c1.42-1.42,3.4-2.31,5.58-2.31h131.64
			c0.39,0,0.77,0.03,1.15,0.08C554.19,1261.86,557.12,1265.15,557.12,1269.11z"/>
		<path class="st18" d="M471.52,1245.63c-0.4,0-0.79-0.03-1.17-0.09h95.94c0.4,0,0.79,0.03,1.17,0.09H471.52z"/>
		<path class="st18" d="M549.23,1261.23c0.39,0,0.77,0.03,1.15,0.08H434.65c-0.39,0-0.77-0.03-1.15-0.08H549.23z"/>
		<path class="st18" d="M611.04,1237.74c0,2.18-0.88,4.15-2.31,5.58c-1.43,1.43-3.4,2.31-5.58,2.31H471.52
			c-0.4,0-0.79-0.03-1.17-0.09c-3.8-0.57-6.71-3.84-6.71-7.8c0-2.18,0.88-4.15,2.31-5.58c1.42-1.42,3.4-2.31,5.58-2.31h131.64
			C607.51,1229.85,611.04,1233.38,611.04,1237.74z"/>
		<path class="st19" d="M682.07,1135.32H550.43c-4.36,0-7.89-3.53-7.89-7.89l0,0c0-4.36,3.53-7.89,7.89-7.89h131.64
			c4.36,0,7.89,3.53,7.89,7.89l0,0C689.96,1131.79,686.43,1135.32,682.07,1135.32z"/>
		<path class="st19" d="M703.74,1103.73h-89.39c-4.36,0-7.89-3.53-7.89-7.89l0,0c0-4.36,3.53-7.89,7.89-7.89h89.39
			c4.36,0,7.89,3.53,7.89,7.89l0,0C711.63,1100.2,708.1,1103.73,703.74,1103.73z"/>
		<path class="st19" d="M825.15,1191.3l-90.15,90.15c-5.97,5.97-15.64,5.97-21.61,0l-90.15-90.15c-5.97-5.97-5.97-15.64,0-21.61
			l50.18-50.18h20.36c2.18,0,4.15-0.88,5.58-2.31c1.42-1.43,2.31-3.4,2.31-5.58c0-4.36-3.53-7.89-7.88-7.89h-4.59l24.2-24.2
			c5.97-5.97,15.64-5.97,21.61,0l90.15,90.15C831.12,1175.65,831.12,1185.33,825.15,1191.3z"/>
		<path class="st20" d="M824.72,1462.02l-90.15,90.15c-2.79,2.79-6.39,4.27-10.04,4.46c-4.17,0.21-8.4-1.27-11.58-4.46l-90.15-90.15
			c-2.98-2.99-4.48-6.9-4.48-10.81c0-3.91,1.49-7.82,4.48-10.81l49-49l26.74-26.74l14.4-14.4c3.18-3.18,7.42-4.67,11.58-4.46
			c3.65,0.18,7.25,1.67,10.04,4.46l16.7,16.7l73.44,73.44C830.69,1446.38,830.69,1456.05,824.72,1462.02z"/>
		<polygon class="st21" points="804.82,1420.5 804.82,1481.93 778.08,1508.67 778.08,1393.76 		"/>
		<path class="st21" d="M751.28,1366.96v168.5l-16.7,16.7c-2.79,2.79-6.39,4.27-10.04,4.46V1345.8c3.65,0.18,7.25,1.67,10.04,4.46
			L751.28,1366.96z"/>
		<polygon class="st21" points="698.56,1364.66 698.56,1537.77 671.82,1511.03 671.82,1391.4 		"/>
		<path class="st21" d="M645.07,1418.14v66.14l-22.26-22.26c-2.98-2.99-4.48-6.9-4.48-10.81c0-3.91,1.49-7.82,4.48-10.81
			L645.07,1418.14z"/>
		<g>
			<path class="st9" d="M412.57,1478.46l28.1-75.97c2.86-7.73,7.84-11.59,14.94-11.59c7.18,0,12.16,3.86,14.94,11.59l27.42,75.97
				c0.73,2,1.09,3.73,1.09,5.18c0,2.68-0.95,4.89-2.86,6.62c-1.91,1.73-4.16,2.59-6.75,2.59c-5.27,0-8.68-2.41-10.23-7.23
				l-4.16-13.16h-38.81l-4.23,13.03c-1.59,4.91-4.93,7.37-10.03,7.37c-2.82,0-5.25-0.92-7.3-2.76c-2.05-1.84-3.07-4.17-3.07-6.99
				C411.62,1482.65,411.93,1481.1,412.57,1478.46z M455.47,1412.72l-13.23,40.51h26.53l-13.03-40.51H455.47z"/>
		</g>
		<g>
			<path class="st9" d="M942.42,1449.3c0-16.42,4.86-30.05,14.58-40.89c10.13-11.3,23.3-16.96,39.51-16.96
				c13.61,0,23.66,2.99,30.15,8.98c2.4,2.2,3.61,5.09,3.61,8.67c0,2.92-0.91,5.4-2.72,7.44c-1.82,2.05-4.16,3.07-7.02,3.07
				c-1.43,0-4.86-0.92-10.28-2.76c-5.42-1.84-10-2.76-13.73-2.76c-9.62,0-17.11,3.73-22.48,11.2c-4.71,6.55-7.06,14.71-7.06,24.48
				c0,9.67,2.46,17.72,7.37,24.17c5.37,7.06,12.76,10.59,22.17,10.59c3.89,0,8.59-1.1,14.12-3.3s9.13-3.3,10.82-3.3
				c4.76,0,8,2.46,9.74,7.37c0.46,1.28,0.69,2.38,0.69,3.3c0,6.6-4.48,11.56-13.43,14.88c-6.55,2.46-13.86,3.68-21.94,3.68
				c-16.06,0-29.21-5.78-39.44-17.34C947.3,1478.76,942.42,1465.26,942.42,1449.3z"/>
		</g>
		<g>
			<path class="st9" d="M540.29,1588.87c0-16.42,4.86-30.05,14.58-40.89c10.13-11.3,23.3-16.96,39.51-16.96
				c13.61,0,23.66,2.99,30.15,8.98c2.4,2.2,3.61,5.09,3.61,8.67c0,2.92-0.91,5.4-2.72,7.44c-1.82,2.05-4.16,3.07-7.02,3.07
				c-1.43,0-4.86-0.92-10.28-2.76c-5.42-1.84-10-2.76-13.73-2.76c-9.62,0-17.11,3.73-22.48,11.2c-4.71,6.55-7.06,14.71-7.06,24.48
				c0,9.67,2.46,17.72,7.37,24.17c5.37,7.06,12.76,10.59,22.17,10.59c3.89,0,8.59-1.1,14.12-3.3s9.13-3.3,10.82-3.3
				c4.76,0,8,2.46,9.74,7.37c0.46,1.28,0.69,2.38,0.69,3.3c0,6.6-4.48,11.56-13.43,14.88c-6.55,2.46-13.86,3.68-21.94,3.68
				c-16.06,0-29.21-5.78-39.44-17.34C545.17,1618.33,540.29,1604.83,540.29,1588.87z"/>
		</g>
		<g>
			<path class="st9" d="M861.01,1533.05c10.32,0,18.37,2.39,24.14,7.16c2.14,1.77,3.21,4.05,3.21,6.82c0,2.96-0.82,5.39-2.46,7.3
				c-1.73,2.05-4.02,3.07-6.89,3.07c-1.68,0-3.87-0.48-6.55-1.43l-6.41-2.25c-1.68-0.36-3.55-0.55-5.59-0.55
				c-3.05,0-5.64,0.73-7.77,2.18c-2.46,1.68-3.68,3.98-3.68,6.89c0,3.68,4.05,6.71,12.14,9.07c5.05,1.46,8.87,2.64,11.46,3.55
				c4.46,1.55,8.14,3.25,11.05,5.12c8,5.14,12,12.96,12,23.46c0,9.87-3.55,17.82-10.64,23.87c-6.68,5.73-15.05,8.59-25.1,8.59
				c-13.91,0-23.98-2.57-30.21-7.71c-2.5-2.05-3.75-4.71-3.75-7.98c0-2.82,0.86-5.17,2.59-7.06c1.73-1.89,3.98-2.83,6.75-2.83
				c2.18,0,5.77,0.89,10.78,2.66c5.23,1.86,9.46,2.8,12.69,2.8c4.05,0,7.37-0.96,9.96-2.86c2.86-2.18,4.3-5.23,4.3-9.14
				c0-4.55-4-8-12-10.37c-2.59-0.68-6.46-1.75-11.59-3.21c-3.82-1.18-7.46-2.73-10.91-4.64c-8.09-4.5-12.14-11.43-12.14-20.8
				c0-9.55,3.43-17.3,10.3-23.26C843.21,1535.87,851.33,1533.05,861.01,1533.05z"/>
		</g>
	</g>
	<polygon class="st12" points="707.83,1767.36 741.84,1767.36 724.84,1784.36 	"/>
	<path class="st12" d="M1056.65,1452.28l-243.79,243.78l-58.21,58.21c-0.95-1.36-2.27-2.3-3.75-2.57c-0.29-0.06-0.9-0.06-0.9-0.06
		h-58.26l-15.71-15.71h21c0.66,0,1.29-0.13,1.88-0.37c0.95-0.38,1.81-1.05,2.5-1.93c1.12-1.42,1.81-3.38,1.81-5.56
		c0-3.95-2.3-7.22-5.29-7.77c-0.29-0.06-0.59-0.08-0.9-0.08h-36.81l-25.02-25.17L391,1450.86l332.12-332.11L1056.65,1452.28z"/>
	<path class="st17" d="M842.93,1411.61L760,1328.68c-7.96-7.96-7.96-20.86,0-28.82l82.93-82.93c7.96-7.96,20.86-7.96,28.82,0
		l82.93,82.93c7.96,7.96,7.96,20.86,0,28.82l-82.93,82.93C863.8,1419.57,850.89,1419.57,842.93,1411.61z"/>
	<path class="st21" d="M978.66,1547.33l-83.68-83.68c-7.75-7.75-7.75-20.32,0-28.07l83.68-83.68c7.75-7.75,20.32-7.75,28.07,0
		l83.68,83.68c7.75,7.75,7.75,20.32,0,28.07l-83.68,83.68C998.98,1555.09,986.41,1555.09,978.66,1547.33z"/>
	<path class="st15" d="M847.7,1683.4l-88.78-88.79c-6.34-6.34-6.34-16.62,0-22.97l88.79-88.78c6.34-6.34,16.62-6.34,22.97,0
		l88.78,88.79c6.34,6.34,6.34,16.62,0,22.97l-88.79,88.78C864.32,1689.74,854.04,1689.74,847.7,1683.4z"/>
	<path class="st16" d="M824.52,1729.44l-69.77,69.77l-20.44,20.44c-5.97,5.97-15.66,5.97-21.63,0l-20.5-20.5h19.37
		c0.67,0,1.32-0.13,1.92-0.38c0.97-0.39,1.85-1.08,2.55-1.97c1.14-1.45,1.85-3.46,1.85-5.68c0-4.04-2.35-7.38-5.41-7.94
		c-0.3-0.06-0.61-0.09-0.92-0.09h-35.15l-15.71-15.71h89.29c0.66,0,1.29-0.13,1.88-0.37c0.95-0.38,1.81-1.05,2.5-1.93
		c1.12-1.42,1.81-3.38,1.81-5.56c0-2-0.59-3.82-1.55-5.21c-0.95-1.35-2.26-2.29-3.74-2.56c-0.29-0.06-0.59-0.08-0.9-0.08h-103.8
		c-0.4,0-0.8,0.05-1.18,0.14l-0.14-0.14l-15.71-15.71h67.84c0.66,0,1.29-0.13,1.88-0.37c0.95-0.38,1.81-1.05,2.5-1.93
		c1.12-1.42,1.81-3.38,1.81-5.56c0-3.95-2.3-7.22-5.29-7.77c-0.29-0.06-0.59-0.08-0.9-0.08H618.1c-0.46-4.43,1-9.02,4.4-12.41
		l12.63-12.63l77.57-77.58c5.97-5.97,15.66-5.97,21.63,0l78.58,78.59l11.62,11.62C830.49,1713.78,830.49,1723.47,824.52,1729.44z"/>
	<path class="st17" d="M690.89,1595.8l-89.8,89.8c-5.94,5.95-15.58,5.95-21.53,0l-14.26-14.26l-15.71-15.71h2.31
		c0.9,0,1.77-0.13,2.58-0.37c1.3-0.38,2.47-1.05,3.42-1.93c1.53-1.42,2.48-3.38,2.48-5.55c0-3.95-3.15-7.22-7.25-7.77
		c-0.4-0.06-0.82-0.08-1.23-0.08h-18.26l-15.71-15.71h11.79c0.9,0,1.76-0.13,2.58-0.37c1.3-0.38,2.47-1.05,3.42-1.93
		c1.53-1.42,2.48-3.38,2.48-5.55c0-3.95-3.15-7.22-7.25-7.77c-0.4-0.06-0.82-0.08-1.23-0.08h-27.26l-12.69-12.69
		c-0.93-0.93-1.71-1.94-2.35-3.02c-3.45-5.84-2.67-13.49,2.35-18.51l89.8-89.8c5.94-5.94,15.58-5.94,21.53,0l89.8,89.8
		C696.83,1580.22,696.83,1589.86,690.89,1595.8z"/>
	<path class="st21" d="M555.75,1460.35l-89.96,89.96c-5.96,5.96-15.62,5.96-21.57,0l-68.81-68.81l-1.15-1.15h27.46
		c0.51-0.33,0.98-0.72,1.4-1.17c1.34-1.43,2.18-3.41,2.18-5.59c0-3.98-2.77-7.27-6.37-7.82c-0.35-0.06-0.72-0.08-1.08-0.08h-13.02
		c-0.67,0.23-1.37,0.35-2.11,0.35h-22.9l-5.78-5.78c-2.76-2.76-4.24-6.32-4.43-9.93h34.67c2.59,0,4.94-0.88,6.64-2.3
		c1.7-1.42,2.75-3.38,2.75-5.56c0-3.95-3.49-7.22-8.03-7.77c-0.45-0.06-0.9-0.08-1.36-0.08h-26.08l15.71-15.71h0.35
		c0.44,0,0.87,0.03,1.29,0.08c0.48,0.06,0.95,0.15,1.4,0.27h30.28c1.77,0,3.37-0.88,4.53-2.3c1.16-1.42,1.87-3.38,1.87-5.56
		c0-3.95-2.38-7.22-5.47-7.77c-0.3-0.06-0.62-0.08-0.93-0.08h-17.74l54.73-54.73c5.96-5.96,15.61-5.96,21.57,0l89.96,89.96
		C561.7,1444.73,561.7,1454.39,555.75,1460.35z"/>
	<path class="st20" d="M691.62,1325.27l-90.46,90.46c-5.99,5.99-15.7,5.99-21.68,0l-90.46-90.46c-4.58-4.58-5.66-11.32-3.24-16.93
		c0.75-1.73,1.83-3.35,3.24-4.76L500,1292.6l0.09-0.09h37.13c1.72-0.26,3.26-1.07,4.43-2.24c1.44-1.44,2.33-3.43,2.33-5.62
		c0-3.99-2.95-7.3-6.79-7.86h-21.16l15.71-15.71h17.56l1.15,0.35h15.82c2.23,0,4.25-0.9,5.71-2.36c1.46-1.46,2.36-3.48,2.36-5.71
		c0-4.05-2.98-7.41-6.87-7.99h-20.24l0.09-0.09l15.74-15.74l16.42-16.42c5.99-5.99,15.7-5.99,21.68,0l90.46,90.46
		C697.61,1309.57,697.61,1319.28,691.62,1325.27z"/>
	<path class="st20" d="M594.32,1300.37c0,2.17-0.88,4.13-2.3,5.55c-1.42,1.42-3.39,2.3-5.55,2.3h-131.1c-4.34,0-7.86-3.52-7.86-7.86
		c0-2.17,0.88-4.13,2.3-5.55c1.16-1.16,2.68-1.96,4.39-2.22c0.38-0.06,0.77-0.09,1.17-0.09h131.1
		C590.8,1292.51,594.32,1296.03,594.32,1300.37z"/>
	<path class="st21" d="M484.34,1488.21c0,2.17-0.83,4.14-2.17,5.55c-1.34,1.42-3.19,2.3-5.23,2.3H353.35
		c-0.36,0-0.72-0.03-1.07-0.08c-3.58-0.55-6.33-3.82-6.33-7.77c0-2.17,0.83-4.13,2.17-5.55c0.42-0.44,0.88-0.83,1.38-1.15
		c1.12-0.73,2.44-1.14,3.85-1.14l123.59,0c0.36,0,0.72,0.03,1.07,0.08C481.59,1480.99,484.34,1484.26,484.34,1488.21z"/>
	<path class="st16" d="M691.43,1775.22c0,2.17-1.13,4.14-2.94,5.55c-1.12,0.88-2.5,1.55-4.05,1.93c-0.96,0.24-1.99,0.37-3.05,0.37
		H513.72c-0.49,0-0.98-0.03-1.46-0.08c-4.86-0.55-8.59-3.82-8.59-7.77c0-2.17,1.13-4.13,2.95-5.56c1.82-1.42,4.33-2.3,7.1-2.3
		h167.66c0.49,0,0.98,0.03,1.45,0.08C687.7,1767.99,691.43,1771.26,691.43,1775.22z"/>
	<path class="st16" d="M754.85,1799.2l-15.65,15.65h-88.52c-0.3,0-0.61-0.03-0.9-0.08c-2.99-0.55-5.29-3.82-5.29-7.77
		c0-2.17,0.7-4.13,1.82-5.56c1.12-1.42,2.67-2.3,4.38-2.3h103.36C754.32,1799.13,754.59,1799.16,754.85,1799.2z"/>
	<path class="st16" d="M670.3,1743.79c0,2.17-0.7,4.14-1.81,5.56c-0.69,0.88-1.54,1.55-2.5,1.93c-0.59,0.24-1.22,0.37-1.88,0.37
		l-103.36,0c-0.3,0-0.61-0.03-0.9-0.08c-2.99-0.55-5.29-3.82-5.29-7.77c0-2.17,0.7-4.13,1.82-5.55c1.12-1.42,2.67-2.3,4.38-2.3
		H664.1c0.3,0,0.61,0.03,0.9,0.08C668,1736.57,670.3,1739.84,670.3,1743.79z"/>
	<path class="st17" d="M612.96,1663.84c0,2.17-0.7,4.14-1.81,5.55c-0.69,0.88-1.54,1.55-2.5,1.93c-0.59,0.24-1.22,0.37-1.88,0.37
		H503.41c-0.3,0-0.61-0.03-0.9-0.08c-2.99-0.55-5.29-3.82-5.29-7.77c0-2.17,0.7-4.13,1.82-5.56c1.12-1.42,2.67-2.3,4.38-2.3h103.36
		c0.3,0,0.61,0.03,0.9,0.08C610.66,1656.62,612.96,1659.89,612.96,1663.84z"/>
	<path class="st17" d="M581.89,1632.06c0,2.17-0.95,4.14-2.48,5.55c-0.95,0.88-2.11,1.55-3.42,1.93c-0.81,0.24-1.68,0.37-2.58,0.37
		H431.78c-0.41,0-0.83-0.03-1.23-0.08c-4.1-0.55-7.26-3.82-7.26-7.77c0-2.17,0.95-4.13,2.49-5.56c1.54-1.42,3.66-2.3,6-2.3h141.63
		c0.41,0,0.83,0.03,1.23,0.08C578.74,1624.84,581.89,1628.11,581.89,1632.06z"/>
	<path class="st17" d="M615.75,1600.64c0,2.17-0.95,4.14-2.48,5.56c-0.95,0.88-2.12,1.55-3.42,1.93c-0.81,0.24-1.68,0.37-2.58,0.37
		H465.64c-0.41,0-0.83-0.03-1.23-0.08c-4.1-0.55-7.25-3.82-7.25-7.77c0-2.17,0.95-4.13,2.49-5.55c1.53-1.42,3.66-2.3,6-2.3h141.63
		c0.41,0,0.83,0.03,1.23,0.08C612.61,1593.42,615.75,1596.69,615.75,1600.64z"/>
	<path class="st21" d="M410.05,1458.19c0,2.17-0.95,4.14-2.48,5.56c-0.95,0.88-2.12,1.55-3.42,1.93c-0.81,0.24-1.68,0.37-2.58,0.37
		H259.94c-0.41,0-0.83-0.03-1.23-0.08c-4.11-0.55-7.25-3.82-7.25-7.77c0-2.17,0.95-4.13,2.49-5.56c1.53-1.42,3.66-2.3,6-2.3h141.63
		c0.41,0,0.83,0.03,1.23,0.08C406.9,1450.96,410.05,1454.23,410.05,1458.19z"/>
	<path class="st21" d="M418.73,1426.76c0,2.17-1.26,4.14-3.29,5.55c-2.04,1.42-4.85,2.3-7.96,2.3H219.74c-0.55,0-1.1-0.03-1.63-0.08
		c-5.45-0.55-9.62-3.82-9.62-7.77c0-2.17,1.26-4.13,3.3-5.55c2.03-1.42,4.85-2.3,7.95-2.3h187.74c0.55,0,1.1,0.03,1.64,0.08
		c0.61,0.06,1.19,0.16,1.77,0.29C415.43,1420.28,418.73,1423.25,418.73,1426.76z"/>
	<path class="st21" d="M433.37,1395.69c0,2.17-0.72,4.14-1.87,5.55c-1.16,1.42-2.76,2.3-4.53,2.3H320.11
		c-0.32,0-0.63-0.03-0.93-0.08c-3.1-0.55-5.47-3.82-5.47-7.77c0-2.17,0.72-4.13,1.87-5.56c1.16-1.42,2.76-2.3,4.53-2.3h106.86
		c0.31,0,0.63,0.03,0.93,0.08C430.99,1388.47,433.37,1391.74,433.37,1395.69z"/>
	<path class="st20" d="M556.92,1268.95c0,2.17-0.88,4.14-2.3,5.55c-1.42,1.42-3.38,2.3-5.55,2.3l-131.13,0
		c-0.39,0-0.77-0.03-1.14-0.08c-3.8-0.55-6.72-3.82-6.72-7.77c0-2.17,0.88-4.13,2.3-5.55c1.42-1.42,3.38-2.3,5.55-2.3h131.13
		c0.39,0,0.77,0.03,1.14,0.08C554,1261.72,556.92,1264.99,556.92,1268.95z"/>
	<path class="st18" d="M471.61,1245.73c-0.4-0.27-0.79-0.3-1.17-0.35h95.93c0.4-0.01,0.79,0.02,1.17,0.35H471.61z"/>
	<path class="st18" d="M549.31,1261.44c0.39-0.38,0.77-0.35,1.15-0.35H434.74c-0.39,0.05-0.77,0.02-1.15,0.35H549.31z"/>
	<path class="st20" d="M610.82,1237.52c0,2.17-0.88,4.13-2.3,5.55c-1.42,1.42-3.38,2.3-5.55,2.3h-131.1c-0.4,0-0.79-0.03-1.17-0.09
		c-3.79-0.56-6.69-3.83-6.69-7.77c0-2.17,0.88-4.13,2.3-5.56c1.42-1.42,3.38-2.3,5.55-2.3h131.1
		C607.31,1229.67,610.82,1233.18,610.82,1237.52z"/>
	<path class="st16" d="M682.15,1135.05H550.41c-4.31,0-7.8-3.49-7.8-7.8v-0.11c0-4.31,3.49-7.8,7.8-7.8h131.74
		c4.31,0,7.8,3.49,7.8,7.8v0.11C689.95,1131.55,686.46,1135.05,682.15,1135.05z"/>
	<path class="st16" d="M703.8,1103.62h-89.49c-4.31,0-7.8-3.49-7.8-7.8v-0.11c0-4.31,3.49-7.8,7.8-7.8h89.49
		c4.31,0,7.8,3.49,7.8,7.8v0.11C711.6,1100.13,708.11,1103.62,703.8,1103.62z"/>
	<path class="st16" d="M824.83,1190.85l-89.8,89.8c-5.94,5.94-15.58,5.94-21.53,0l-89.8-89.8c-5.94-5.94-5.94-15.58,0-21.53
		l49.99-49.98h20.29c2.17,0,4.13-0.88,5.55-2.3c1.44-1.44,2.32-3.43,2.3-5.64c-0.04-4.34-3.72-7.78-8.06-7.78h-4.36l24.11-24.11
		c5.94-5.94,15.58-5.94,21.53,0l89.8,89.8C830.77,1175.26,830.77,1184.9,824.83,1190.85z"/>
	<path class="st20" d="M824.78,1461.84l-13.15,13.15l-25.11,25.11l-25.1,25.1l-25.11,25.11l-1.68,1.68
		c-2.79,2.79-6.39,4.27-10.03,4.46c-4.17,0.21-8.4-1.27-11.58-4.46l-90.14-90.14c-2.98-2.99-4.48-6.9-4.48-10.81
		s1.49-7.82,4.48-10.81l63.29-63.29l12.45-12.45l12.65-12.65l1.75-1.75c3.18-3.18,7.42-4.66,11.58-4.46
		c3.65,0.18,7.24,1.67,10.03,4.46l1.68,1.68l88.46,88.46C830.74,1446.19,830.74,1455.87,824.78,1461.84z"/>
	<polygon class="st21" points="761.53,1376.77 761.53,1525.29 736.39,1550.43 736.39,1351.63 	"/>
	<polygon class="st21" points="811.81,1427.05 811.81,1475.01 786.67,1500.15 786.67,1401.91 	"/>
	<polygon class="st21" points="711.25,1351.69 711.25,1550.37 686.11,1525.23 686.11,1376.83 698.58,1364.37 	"/>
	<polygon class="st21" points="660.97,1401.98 660.97,1500.08 635.84,1474.94 635.84,1427.12 	"/>
	<g>
		<path class="st9" d="M412.66,1478.33l28.1-75.97c2.86-7.73,7.84-11.59,14.93-11.59c7.18,0,12.16,3.86,14.93,11.59l27.41,75.97
			c0.73,2,1.09,3.73,1.09,5.18c0,2.68-0.95,4.89-2.86,6.61c-1.91,1.73-4.16,2.59-6.75,2.59c-5.27,0-8.68-2.41-10.23-7.23
			l-4.16-13.16h-38.8l-4.23,13.03c-1.59,4.91-4.93,7.36-10.02,7.36c-2.82,0-5.25-0.92-7.3-2.76c-2.05-1.84-3.07-4.17-3.07-6.99
			C411.71,1482.51,412.02,1480.97,412.66,1478.33z M455.56,1412.62l-13.23,40.5h26.52l-13.02-40.5H455.56z"/>
	</g>
	<g>
		<path class="st9" d="M942.46,1449.12c0-16.42,4.86-30.05,14.58-40.89c10.13-11.3,23.3-16.95,39.51-16.95
			c13.6,0,23.65,2.99,30.15,8.98c2.4,2.2,3.61,5.09,3.61,8.67c0,2.92-0.91,5.4-2.72,7.44c-1.82,2.05-4.16,3.07-7.02,3.07
			c-1.43,0-4.86-0.92-10.28-2.76c-5.42-1.84-10-2.76-13.73-2.76c-9.62,0-17.11,3.73-22.48,11.2c-4.71,6.55-7.06,14.7-7.06,24.47
			c0,9.67,2.46,17.72,7.36,24.17c5.37,7.06,12.76,10.59,22.17,10.59c3.89,0,8.59-1.1,14.12-3.3c5.52-2.2,9.13-3.3,10.82-3.3
			c4.76,0,8,2.45,9.74,7.36c0.46,1.28,0.69,2.38,0.69,3.3c0,6.6-4.48,11.56-13.43,14.88c-6.55,2.45-13.86,3.68-21.94,3.68
			c-16.06,0-29.2-5.78-39.43-17.34C947.35,1478.58,942.46,1465.07,942.46,1449.12z"/>
	</g>
	<g>
		<path class="st9" d="M540.37,1588.67c0-16.42,4.86-30.05,14.58-40.89c10.13-11.3,23.3-16.95,39.51-16.95
			c13.6,0,23.65,2.99,30.15,8.98c2.4,2.2,3.61,5.09,3.61,8.67c0,2.92-0.91,5.4-2.72,7.44c-1.82,2.05-4.16,3.07-7.02,3.07
			c-1.43,0-4.86-0.92-10.28-2.76c-5.42-1.84-10-2.76-13.73-2.76c-9.62,0-17.11,3.73-22.48,11.2c-4.71,6.55-7.06,14.7-7.06,24.47
			c0,9.67,2.45,17.72,7.36,24.17c5.37,7.06,12.76,10.59,22.17,10.59c3.89,0,8.59-1.1,14.12-3.3c5.52-2.2,9.13-3.3,10.82-3.3
			c4.76,0,8,2.45,9.74,7.36c0.46,1.28,0.69,2.38,0.69,3.3c0,6.6-4.48,11.56-13.43,14.88c-6.55,2.45-13.86,3.68-21.94,3.68
			c-16.06,0-29.2-5.78-39.43-17.34C545.25,1618.13,540.37,1604.63,540.37,1588.67z"/>
	</g>
	<g>
		<path class="st9" d="M861.06,1532.86c10.32,0,18.37,2.39,24.14,7.16c2.14,1.77,3.21,4.05,3.21,6.82c0,2.96-0.82,5.39-2.46,7.3
			c-1.73,2.05-4.02,3.07-6.89,3.07c-1.68,0-3.86-0.48-6.55-1.43l-6.41-2.25c-1.68-0.36-3.55-0.55-5.59-0.55
			c-3.05,0-5.64,0.73-7.77,2.18c-2.45,1.68-3.68,3.98-3.68,6.89c0,3.68,4.05,6.71,12.14,9.07c5.05,1.46,8.87,2.64,11.46,3.55
			c4.45,1.55,8.14,3.25,11.05,5.11c8,5.14,12,12.96,12,23.46c0,9.87-3.55,17.82-10.64,23.87c-6.68,5.73-15.05,8.59-25.1,8.59
			c-13.91,0-23.98-2.57-30.21-7.71c-2.5-2.05-3.75-4.71-3.75-7.98c0-2.82,0.86-5.17,2.59-7.06c1.73-1.89,3.98-2.83,6.75-2.83
			c2.18,0,5.77,0.89,10.77,2.66c5.23,1.86,9.46,2.8,12.68,2.8c4.05,0,7.36-0.95,9.96-2.86c2.86-2.18,4.3-5.23,4.3-9.14
			c0-4.55-4-8-12-10.37c-2.59-0.68-6.46-1.75-11.59-3.21c-3.82-1.18-7.46-2.73-10.91-4.64c-8.09-4.5-12.14-11.43-12.14-20.8
			c0-9.55,3.43-17.3,10.3-23.25C843.26,1535.68,851.38,1532.86,861.06,1532.86z"/>
	</g>
</g>
</svg>
